<?xml version="1.0" encoding="utf-8"?>
<!-- Generator: Adobe Illustrator 24.3.0, SVG Export Plug-In . SVG Version: 6.00 Build 0)  -->
<svg version="1.1" id="Layer_1" xmlns="http://www.w3.org/2000/svg" xmlns:xlink="http://www.w3.org/1999/xlink" x="0px" y="0px"
	 viewBox="0 0 1000 1000" style="enable-background:new 0 0 1000 1000;" xml:space="preserve">
<style type="text/css">
	.st0{fill:#484C4D;}
	.st1{fill:#87C540;}
	.st2{fill:#A3D3E3;}
	.st3{opacity:0.5;fill:#666766;}
	.st4{opacity:0.45;fill:#5B7882;}
	.st5{fill:#FFFFFF;}
</style>
<ellipse class="st0" cx="532.7" cy="915" rx="285.6" ry="38"/>
<g>
	<path d="M801.1,406.5c24.6-27.3,37.3-61.4,34.6-94.7c-3.1-39.4-27.7-77.5-69.2-107h0c-5.2-3.7-10.5-7.2-16-10.4
		c-4.9-20.6-15.5-39-24.6-52.1c-14.4-20.5-32.7-38.6-50.2-49.5c-31.8-19.9-67.1-29.9-97.7-37.8c-17.1-4.4-31.4-3.4-44.1-2.6
		c-8.6,0.6-16,1.1-23.9-0.1c-34.9-5-70.9,3-104.2,23.4c-29.5,18-55.4,45-72.9,76.1c-23.8,42.2-34.1,89.5-39.4,134.9
		c-7.4,0.9-15.9,1-24.7,1.1c-25.8,0.2-57.9,0.4-80.7,25.5c-19.7,21.7-20.7,50.6-21.4,69.7c-2.5,71.3-5.1,145-3.2,218
		c1.1,42.5,6.5,85.8,38.5,115.4c24.7,22.9,56.9,28.8,85.9,28.8c3,0,6-0.1,9-0.2c1.9,19,4.1,38.1,6.5,57c3.1,24.3,6.9,47.9,19.9,69.3
		c19,31.4,55.4,50.6,92.8,50.6c6.5,0,13-0.6,19.4-1.8c44.2-8.1,80.6-43.1,90.6-86.9c4.8-21,3.2-41.7,1.8-60.1
		c-0.6-7.9-1.2-15.5-1.2-22.8c9.4-0.1,20.4-0.2,32.4-0.4c-7.7,42.9,6.3,88.5,38.6,116.4c19.6,16.9,45.6,26.2,72.7,26.2
		c3.6,0,7.3-0.2,11-0.5c29.5-2.7,55.1-16,72.2-37.4c18.8-23.6,25-52,29.7-79.2c21-121.7,27.2-245.8,18.3-369L801.1,406.5z"/>
	<path class="st1" d="M751.2,495.4c-0.2-16.8-0.8-33.6-1.6-50.4c-19.4,9.8-42,17.5-68.9,23.6c-25.4,5.7-48.8,8.6-70.3,8.6
		c-20,0-38.5-2.5-55.6-7.4c-53.8-15.6-98.6-58.2-116.9-111.2c-14.2-41.2-12.2-88,5.7-128.5c19.4-44,67.4-56.8,96.1-64.5
		c44.4-11.8,90.9-12.3,134.5-2.1c-8.6-10.4-18.2-19.3-27.1-24.9c-25.3-15.8-55.9-24.4-82.6-31.3c-8.6-2.2-16.7-1.7-26.9-1
		c-10.2,0.7-21.8,1.5-35.3-0.5c-51.7-7.5-99.6,32.3-122.2,72.4c-1.2,2.1-2.3,4.2-3.4,6.3c-24.9,48.1-30.3,105-33.7,159.4
		c-9.4,150.2-4.6,302,14.2,451.2c2.4,19,5,35.7,12.5,48c10.6,17.5,34.8,27.7,56.2,23.7c22.5-4.1,42.6-23.4,47.7-45.7
		c3-13,1.8-28.1,0.6-44c-1.4-18.2-2.9-38.9,1.7-59.8c2.7-12,13.1-20.6,25.4-21.1l0.9,0c0.4,0,0.7,0,1.1,0
		c21.8,0.1,130.2-1.3,182.8-5.6c0,0-26.8,51-70.6,57.6c-9.2,27.1-2.2,59.8,17.8,77.1c11,9.5,27.2,14.3,43.4,12.8
		c14.5-1.3,27.2-7.6,34.9-17.3c10.8-13.6,15-33.6,18.6-54.6C745.4,676.9,752.5,586.1,751.2,495.4z M286,399.7
		c0.7-19.5,1.7-38.9,2.9-58.3c-6.7,0.4-13.3,0.4-19.7,0.5c-21.3,0.1-34.6,0.7-41.1,7.8c-6.4,7.1-7,24-7.4,35.2
		c-0.2,6-0.4,11.9-0.6,17.9c-2.2,64.9-4.2,131.5-2.5,196.8c0.8,30.6,3.9,61.1,21.2,77.1c12.8,11.8,32.3,14.9,53.3,14.3
		C284.3,594.1,282.3,496.7,286,399.7z"/>
	<path class="st2" d="M781.5,328.2c-2.5,18.9-14,38.3-31.8,52.8c-19,15.6-44.7,26.6-80.9,34.8c-40.6,9.1-72,9.8-98.9,2
		c-37.2-10.8-68.2-40.2-80.9-76.9c-9.8-28.4-8.3-60.9,4-89c1.3-2.9,2.9-5.8,5.5-8.9c6.8-7.7,20.8-16,55-25.2
		c19-5.1,38.5-7.6,57.8-7.6c44.6,0,88.3,13.3,123.7,38.5c38.1,27.2,45.6,53.8,46.7,67.3C782.2,320.1,782.1,324.1,781.5,328.2z"/>
	<path class="st3" d="M292,690.9c-21,0.6-40.5-2.4-53.3-14.3c-17.2-15.9-20.4-46.5-21.2-77.1c-1.7-65.3,0.3-131.9,2.5-196.8
		c19.5-8.1,43.2-6.9,65.9-3.1C282.3,496.7,284.3,594.1,292,690.9z M751.2,495.4c-15.1,55.9-54.6,105.4-107.8,128.4
		c-69.7,30.2-158.6,10.8-206.8-47.9c-30.9-37.6-44.1-86.5-52.5-134.4c-14.9-84.7-17.4-171.5-7.5-256.9
		c-24.9,48.1-30.3,105-33.7,159.4c-9.4,150.2-4.6,302,14.2,451.2c2.4,19,5,35.7,12.5,48c10.6,17.5,34.8,27.7,56.2,23.7
		c22.5-4.1,42.6-23.4,47.7-45.7c3-13,1.8-28.1,0.6-44c-1.4-18.2-2.9-38.9,1.7-59.8c2.7-12,13.1-20.6,25.4-21.1l0.9,0
		c0.4,0,0.7,0,1.1,0c21.8,0.1,130.2-1.3,182.8-5.6c0,0-26.8,51-70.6,57.6c-9.2,27.1-2.2,59.8,17.8,77.1c11,9.5,27.2,14.3,43.4,12.8
		c14.5-1.3,27.2-7.6,34.9-17.3c10.8-13.6,15-33.6,18.6-54.6C745.4,676.9,752.5,586.1,751.2,495.4z"/>
	<path class="st4" d="M781.5,328.2c-2.5,18.9-14,38.3-31.8,52.8c-19,15.6-44.7,26.6-80.9,34.8c-40.6,9.1-72,9.8-98.9,2
		c-37.2-10.8-68.2-40.2-80.9-76.9c-9.8-28.4-8.3-60.9,4-89c1.3-2.9,2.9-5.8,5.5-8.9c7.1,10.7,12.5,38.8,17.5,47.1
		c10.4,17.3,25.3,32.1,42.6,42.6c36.5,22.2,81.4,27,123.8,21.6C716.5,350,749.2,339.7,781.5,328.2z"/>
	<path class="st5" d="M610.3,281.6c-6.9-2.5-13-8.6-13.2-15.9c-0.3-10.6,10.9-17.7,21-21.1c28.4-9.6,60.2-8.5,87.9,2.9
		c7.9,3.3,16.4,8.7,17.2,17.2c0.9,9.5-9,17-18.5,18s-18.8-2.3-28.2-3.9C654.7,275.2,632.8,289.7,610.3,281.6z"/>
</g>
</svg>
