<?xml version="1.0" encoding="utf-8"?>
<!-- Generator: Adobe Illustrator 24.3.0, SVG Export Plug-In . SVG Version: 6.00 Build 0)  -->
<svg version="1.1" id="Layer_1" xmlns="http://www.w3.org/2000/svg" xmlns:xlink="http://www.w3.org/1999/xlink" x="0px" y="0px"
	 viewBox="0 0 1000 1000" style="enable-background:new 0 0 1000 1000;" xml:space="preserve">
<style type="text/css">
	.st0{fill:#484C4D;}
	.st1{fill:#D978B0;}
	.st2{fill:#A3D3E3;}
	.st3{opacity:0.5;fill:#666766;}
	.st4{opacity:0.45;fill:#5B7882;}
	.st5{fill:#FFFFFF;}
</style>
<g>
	<ellipse class="st0" cx="533.9" cy="928.6" rx="295.3" ry="39.3"/>
	<g>
		<path d="M811.4,402.9c25.4-28.2,38.6-63.5,35.8-98c-3.3-40.8-28.7-80.1-71.6-110.6h0c-5.4-3.8-10.9-7.4-16.5-10.8
			c-5-21.3-16-40.3-25.5-53.9c-14.9-21.2-33.8-39.9-51.9-51.2c-32.9-20.6-69.4-31-101-39.1c-17.7-4.5-32.5-3.5-45.6-2.6
			c-8.9,0.6-16.6,1.1-24.7-0.1c-36-5.2-73.3,3.1-107.8,24.2c-30.5,18.6-57.3,46.5-75.3,78.6c-24.6,43.6-35.2,92.5-40.7,139.5
			c-7.7,1-16.5,1-25.6,1.1c-26.7,0.2-59.9,0.4-83.5,26.4c-20.4,22.5-21.4,52.3-22.1,72.1c-2.6,73.7-5.2,149.9-3.3,225.4
			c1.1,43.9,6.8,88.7,39.8,119.3c25.6,23.6,58.8,29.7,88.8,29.7c3.1,0,6.2-0.1,9.3-0.2c2,19.7,4.2,39.4,6.7,59
			c3.2,25.1,7.1,49.5,20.6,71.7c19.7,32.5,57.3,52.3,96,52.3c6.7,0,13.4-0.6,20.1-1.8c45.7-8.4,83.4-44.5,93.7-89.9
			c4.9-21.7,3.3-43.2,1.9-62.1c-0.6-8.1-1.2-16-1.3-23.6c9.7-0.1,21.1-0.2,33.5-0.4c-8,44.3,6.5,91.5,39.9,120.3
			c20.3,17.5,47.2,27.1,75.2,27.1c3.8,0,7.6-0.2,11.4-0.5c30.5-2.8,57-16.6,74.6-38.7c19.5-24.4,25.8-53.8,30.7-81.9
			c21.7-125.8,28.1-254.2,18.9-381.5L811.4,402.9z"/>
		<path class="st1" d="M759.8,494.8c-0.2-17.4-0.8-34.7-1.6-52.1c-20,10.1-43.4,18.1-71.3,24.4c-26.3,5.9-50.4,8.9-72.6,8.9
			c-20.7,0-39.8-2.6-57.5-7.7c-55.7-16.1-102-60.2-120.9-114.9c-14.7-42.6-12.6-91,5.9-132.8c20-45.5,69.7-58.8,99.4-66.7
			c45.9-12.3,94-12.7,139-2.2c-8.9-10.7-18.8-20-28-25.7c-26.2-16.3-57.8-25.3-85.4-32.4c-8.9-2.3-17.3-1.7-27.8-1
			c-10.5,0.7-22.5,1.5-36.5-0.5c-53.5-7.7-103,33.4-126.4,74.9c-1.2,2.2-2.4,4.3-3.5,6.5c-25.7,49.7-31.3,108.6-34.9,164.8
			c-9.7,155.2-4.8,312.2,14.6,466.5c2.5,19.6,5.1,36.9,12.9,49.7c11,18.1,35.9,28.6,58.1,24.5c23.3-4.3,44-24.2,49.3-47.3
			c3.1-13.5,1.9-29,0.6-45.5c-1.4-18.9-3-40.2,1.8-61.8c2.8-12.4,13.6-21.3,26.2-21.8l0.9,0c0.4,0,0.7,0,1.1,0
			c22.5,0.1,134.6-1.3,189-5.8c0,0-27.7,52.8-72.9,59.5c-9.6,28-2.3,61.9,18.4,79.7c11.4,9.8,28.2,14.8,44.8,13.2
			c15-1.4,28.1-7.9,36.1-17.9c11.2-14,15.5-34.7,19.3-56.5C753.8,682.5,761.2,588.6,759.8,494.8z M278.8,395.9
			c0.8-20.1,1.8-40.2,3-60.3c-6.9,0.4-13.8,0.4-20.4,0.5c-22,0.1-35.8,0.8-42.4,8.1c-6.6,7.3-7.3,24.8-7.7,36.4
			c-0.2,6.2-0.4,12.3-0.7,18.5c-2.3,67.1-4.4,135.9-2.6,203.4c0.8,31.7,4.1,63.2,21.9,79.7c13.3,12.3,33.4,15.4,55.1,14.8
			C277.1,596.9,275,496.1,278.8,395.9z"/>
		<path class="st2" d="M791.1,322c-2.6,19.5-14.5,39.6-32.9,54.6c-19.7,16.1-46.3,27.5-83.6,36c-41.9,9.4-74.4,10.1-102.3,2
			c-38.5-11.2-70.5-41.6-83.6-79.5c-10.2-29.4-8.6-62.9,4.2-92c1.3-3,3-6,5.7-9.2c7.1-8,21.5-16.6,56.9-26
			c19.6-5.2,39.8-7.8,59.7-7.8c46.1,0,91.3,13.7,127.9,39.8c39.4,28.1,47.2,55.6,48.3,69.6C791.8,313.6,791.7,317.8,791.1,322z"/>
		<path class="st3" d="M285.1,697c-21.8,0.6-41.9-2.5-55.1-14.8c-17.8-16.5-21.1-48-21.9-79.7c-1.8-67.5,0.3-136.4,2.6-203.4
			c20.2-8.4,44.7-7.1,68.1-3.2C275,496.1,277.1,596.9,285.1,697z M759.8,494.8c-15.6,57.8-56.5,109-111.5,132.8
			c-72,31.2-164,11.1-213.8-49.5c-31.9-38.9-45.6-89.4-54.3-138.9c-15.4-87.6-18-177.3-7.7-265.6c-25.7,49.7-31.3,108.6-34.9,164.8
			c-9.7,155.2-4.8,312.2,14.6,466.5c2.5,19.6,5.1,36.9,12.9,49.7c11,18.1,35.9,28.6,58.1,24.5c23.3-4.3,44-24.2,49.3-47.3
			c3.1-13.5,1.9-29,0.6-45.5c-1.4-18.9-3-40.2,1.8-61.8c2.8-12.4,13.6-21.3,26.2-21.8l0.9,0c0.4,0,0.7,0,1.1,0
			c22.5,0.1,134.6-1.3,189-5.8c0,0-27.7,52.8-72.9,59.5c-9.6,28-2.3,61.9,18.4,79.7c11.4,9.8,28.2,14.8,44.8,13.2
			c15-1.4,28.1-7.9,36.1-17.9c11.2-14,15.5-34.7,19.3-56.5C753.8,682.5,761.2,588.6,759.8,494.8z"/>
		<path class="st4" d="M791.1,322c-2.6,19.5-14.5,39.6-32.9,54.6c-19.7,16.1-46.3,27.5-83.6,36c-41.9,9.4-74.4,10.1-102.3,2
			c-38.5-11.2-70.5-41.6-83.6-79.5c-10.2-29.4-8.6-62.9,4.2-92c1.3-3,3-6,5.7-9.2c7.4,11.1,12.9,40.1,18.1,48.7
			c10.8,17.9,26.2,33.2,44.1,44.1c37.7,23,84.2,27.9,128,22.3C723.9,344.6,757.7,333.9,791.1,322z"/>
		<path class="st5" d="M614.2,273.7c-7.1-2.6-13.4-8.9-13.6-16.4c-0.3-11,11.2-18.3,21.7-21.8c29.3-9.9,62.3-8.8,90.9,3
			c8.2,3.4,17,9,17.8,17.8c0.9,9.8-9.3,17.5-19.1,18.6s-19.5-2.4-29.2-4C660,267.2,637.3,282.2,614.2,273.7z"/>
	</g>
</g>
</svg>
